<?xml version="1.0" encoding="UTF-8" standalone="no"?>
<!DOCTYPE svg PUBLIC "-//W3C//DTD SVG 1.1//EN" "http://www.w3.org/Graphics/SVG/1.1/DTD/svg11.dtd">
<svg xmlns="http://www.w3.org/2000/svg" version="1.1" viewBox="0.00 0.00 500.00 192.00">
<g stroke-width="2.00" fill="none" stroke-linecap="butt">
<path stroke="#6a0f80" vector-effect="non-scaling-stroke" d="
  M 229.29 88.75
  L 322.07 88.74
  A 2.01 2.01 0.0 0 0 324.08 86.71
  L 324.06 82.27
  Q 324.05 81.73 323.52 81.73
  L 311.75 81.75
  Q 311.24 81.75 311.24 81.25
  L 311.25 17.27
  Q 311.25 14.01 308.00 14.01
  L 219.03 14.03"
/>
<path stroke="#4e0880" vector-effect="non-scaling-stroke" d="
  M 219.03 14.03
  L 196.95 14.03
  A 2.72 2.71 -0.0 0 0 194.23 16.74
  L 194.21 81.27
  Q 194.21 81.75 193.73 81.75
  L 181.77 81.75
  Q 181.29 81.75 181.29 82.23
  L 181.28 86.24
  A 2.52 2.51 -0.0 0 0 183.80 88.75
  L 229.29 88.75"
/>
<path stroke="#b717ff" vector-effect="non-scaling-stroke" d="
  M 219.03 14.03
  Q 219.83 14.46 220.44 15.26
  A 0.61 0.60 51.9 0 1 220.34 16.10
  Q 219.62 16.69 220.05 17.38
  Q 220.23 17.68 219.88 17.70
  Q 217.19 17.84 215.91 19.06"
/>
<path stroke="#4e0880" vector-effect="non-scaling-stroke" d="
  M 215.91 19.06
  L 199.54 19.19
  Q 198.99 19.19 198.99 19.74
  L 198.98 76.72
  Q 198.98 77.20 199.45 77.20
  L 229.14 77.27"
/>
<path stroke="#b717ff" vector-effect="non-scaling-stroke" d="
  M 229.14 77.27
  Q 234.03 80.16 232.12 86.24
  Q 231.96 86.76 231.42 86.80
  L 228.58 87.01
  A 0.28 0.28 0.0 0 0 228.33 87.36
  Q 228.52 88.17 229.09 88.06
  Q 229.36 88.01 229.37 88.29
  Q 229.38 88.54 229.29 88.75"
/>
<path stroke="#6a0f80" vector-effect="non-scaling-stroke" d="
  M 229.14 77.27
  L 306.19 77.23
  Q 306.67 77.23 306.67 76.75
  L 306.68 19.53
  A 0.43 0.42 90.0 0 0 306.26 19.10
  L 215.91 19.06"
/>
<path stroke="#801e6f" vector-effect="non-scaling-stroke" d="
  M 400.29 130.60
  A 0.33 0.33 0.0 0 1 399.73 130.36
  L 399.75 109.12
  A 0.33 0.33 0.0 0 0 399.42 108.79
  L 393.87 108.80
  A 0.33 0.33 0.0 0 0 393.54 109.13
  L 393.54 154.66
  A 0.33 0.33 0.0 0 0 393.88 154.99
  L 399.39 154.91
  A 0.33 0.33 0.0 0 0 399.71 154.58
  L 399.70 138.76
  A 0.33 0.33 0.0 0 1 399.81 138.52
  L 406.88 131.99
  A 0.33 0.33 0.0 0 1 407.38 132.04
  L 423.30 154.84
  A 0.33 0.33 0.0 0 0 423.57 154.98
  L 430.80 154.93
  A 0.33 0.33 0.0 0 0 431.07 154.41
  L 411.83 127.70
  A 0.33 0.33 0.0 0 1 411.86 127.27
  L 430.37 109.15
  A 0.33 0.33 0.0 0 0 430.13 108.58
  L 422.25 108.79
  A 0.33 0.33 0.0 0 0 422.03 108.88
  L 400.29 130.60"
/>
<path stroke="#006b80" vector-effect="non-scaling-stroke" d="
  M 73.91 109.53
  L 74.07 154.23
  A 0.78 0.78 0.0 0 0 74.85 155.00
  L 93.25 154.94
  A 20.55 19.00 89.8 0 0 112.18 134.32
  L 112.16 129.16
  A 20.55 19.00 89.8 0 0 93.09 108.68
  L 74.69 108.74
  A 0.78 0.78 0.0 0 0 73.91 109.53"
/>
<path stroke="#494f7a" vector-effect="non-scaling-stroke" d="
  M 194.74 118.39
  A 0.31 0.31 0.0 0 1 195.31 118.23
  L 218.36 154.75
  A 0.31 0.31 0.0 0 0 218.62 154.89
  L 225.02 154.92
  A 0.31 0.31 0.0 0 0 225.33 154.61
  L 225.44 109.11
  A 0.31 0.31 0.0 0 0 225.13 108.80
  L 219.82 108.78
  A 0.31 0.31 0.0 0 0 219.51 109.09
  L 219.54 145.44
  A 0.31 0.31 0.0 0 1 218.97 145.61
  L 196.15 108.92
  A 0.31 0.31 0.0 0 0 195.89 108.77
  L 189.06 108.83
  A 0.31 0.31 0.0 0 0 188.75 109.14
  L 188.72 154.67
  A 0.31 0.31 0.0 0 0 189.03 154.98
  L 194.46 154.97
  A 0.31 0.31 0.0 0 0 194.77 154.66
  L 194.74 118.39"
/>
<path stroke="#6a3876" vector-effect="non-scaling-stroke" d="
  M 337.52 123.44
  L 337.55 154.34
  Q 337.55 154.89 338.09 154.89
  L 342.88 154.90
  Q 343.41 154.90 343.41 154.37
  L 343.46 110.21
  Q 343.46 109.70 342.96 109.71
  L 339.59 109.71
  Q 339.08 109.72 338.96 110.21
  Q 336.86 118.68 327.81 118.09
  A 0.76 0.76 0.0 0 0 326.99 118.84
  L 326.94 122.35
  Q 326.93 122.89 327.47 122.89
  L 336.94 122.86
  Q 337.51 122.86 337.52 123.44"
/>
<path stroke="#801e6f" vector-effect="non-scaling-stroke" d="
  M 357.92 117.94
  C 353.28 129.55 352.57 156.44 371.32 156.01
  C 389.87 155.59 389.36 121.56 379.80 112.97
  C 373.24 107.06 361.36 109.33 357.92 117.94"
/>
<path stroke="#6a3876" vector-effect="non-scaling-stroke" d="
  M 277.46 120.74
  L 277.46 112.43
  Q 277.46 111.90 276.93 111.90
  L 272.53 111.91
  Q 271.98 111.91 271.98 112.47
  L 271.90 120.69
  A 0.59 0.59 0.0 0 1 271.31 121.27
  L 267.74 121.25
  Q 267.22 121.24 267.22 121.76
  L 267.23 125.23
  A 0.74 0.73 89.2 0 0 267.98 125.97
  L 271.26 125.93
  A 0.62 0.62 0.0 0 1 271.89 126.54
  Q 272.02 135.52 271.99 144.50
  C 271.97 150.31 271.37 154.90 278.21 155.27
  Q 280.36 155.38 282.50 154.83
  A 0.68 0.67 -8.9 0 0 283.01 154.14
  L 282.84 150.81
  A 0.53 0.52 79.6 0 0 282.15 150.33
  C 278.82 151.40 277.46 149.78 277.45 146.58
  Q 277.41 136.56 277.49 126.48
  Q 277.50 125.94 278.03 125.95
  L 282.30 125.98
  Q 282.96 125.99 282.96 125.32
  L 282.95 121.90
  Q 282.95 121.25 282.29 121.25
  L 277.99 121.27
  Q 277.46 121.27 277.46 120.74"
/>
<path stroke="#20617e" vector-effect="non-scaling-stroke" d="
  M 124.73 140.00
  L 148.20 139.99
  Q 148.58 139.99 148.61 139.61
  Q 149.11 131.57 145.48 126.02
  C 139.90 117.49 125.36 118.85 120.64 127.72
  C 114.45 139.36 118.85 157.14 134.93 155.85
  C 141.81 155.30 146.50 151.57 148.17 144.93
  Q 148.31 144.34 147.71 144.36
  L 143.56 144.48
  Q 143.02 144.50 142.77 144.98
  C 137.65 155.11 123.66 151.93 124.14 140.57
  Q 124.16 140.00 124.73 140.00"
/>
<path stroke="#594579" vector-effect="non-scaling-stroke" d="
  M 248.4313 156.0100
  A 17.94 15.81 89.9 0 0 264.2100 138.0424
  A 17.94 15.81 89.9 0 0 248.3687 120.1300
  A 17.94 15.81 89.9 0 0 232.5900 138.0976
  A 17.94 15.81 89.9 0 0 248.4313 156.0100"
/>
<path stroke="#6a3876" vector-effect="non-scaling-stroke" d="
  M 309.80 151.09
  C 309.80 155.57 314.95 156.08 318.12 155.00
  Q 318.59 154.83 318.60 154.33
  L 318.65 151.42
  A 0.50 0.50 0.0 0 0 317.97 150.94
  C 315.36 151.91 314.74 150.23 314.76 147.99
  Q 314.83 139.04 314.73 130.07
  C 314.61 119.75 301.17 118.71 294.32 121.76
  Q 289.10 124.09 288.34 130.81
  Q 288.28 131.35 288.82 131.35
  L 292.92 131.39
  A 0.67 0.66 -84.1 0 0 293.57 130.86
  C 295.61 120.92 313.18 124.35 308.69 133.21
  A 2.20 2.20 0.0 0 1 306.97 134.40
  Q 301.22 135.04 295.27 136.06
  C 282.45 138.24 284.31 156.98 298.90 155.82
  Q 304.80 155.35 309.04 150.79
  A 0.44 0.44 0.0 0 1 309.80 151.09"
/>
<path stroke="#37597d" vector-effect="non-scaling-stroke" d="
  M 177.24 121.27
  A 0.32 0.32 0.0 0 0 176.94 121.48
  L 167.70 148.01
  A 0.32 0.32 0.0 0 1 167.10 148.00
  L 158.56 121.45
  A 0.32 0.32 0.0 0 0 158.26 121.23
  L 152.40 121.25
  A 0.32 0.32 0.0 0 0 152.10 121.68
  L 164.18 154.75
  A 0.32 0.32 0.0 0 0 164.48 154.96
  L 170.10 154.94
  A 0.32 0.32 0.0 0 0 170.40 154.73
  L 182.96 121.68
  A 0.32 0.32 0.0 0 0 182.66 121.24
  L 177.24 121.27"
/>
<path stroke="#787c80" vector-effect="non-scaling-stroke" d="
  M 124.06 170.63
  C 122.60 168.95 121.83 166.12 118.72 167.15
  Q 118.24 167.32 118.55 167.72
  L 122.44 172.85
  A 0.77 0.77 0.0 0 1 122.44 173.79
  L 120.72 176.00
  Q 120.32 176.51 119.92 175.99
  Q 116.69 171.77 113.46 167.56
  Q 112.51 166.33 110.49 167.07
  Q 109.97 167.26 110.30 167.70
  L 119.95 180.50
  A 0.48 0.48 0.0 0 0 120.72 180.50
  L 124.06 175.97
  A 0.51 0.51 0.0 0 1 124.88 175.98
  L 128.05 180.45
  A 0.56 0.55 -44.0 0 0 128.94 180.46
  L 138.56 167.58
  Q 138.75 167.32 138.45 167.20
  Q 136.08 166.27 134.92 167.94
  Q 132.05 172.07 128.85 175.97
  Q 128.45 176.46 128.06 175.97
  L 126.32 173.86
  A 0.73 0.72 44.7 0 1 126.31 172.96
  L 130.38 167.62
  Q 130.60 167.33 130.26 167.21
  C 127.16 166.03 126.18 168.67 124.90 170.58
  Q 124.52 171.15 124.06 170.63"
/>
<path stroke="#787c80" vector-effect="non-scaling-stroke" d="
  M 335.49 174.70
  Q 341.37 174.53 347.26 174.69
  C 351.73 174.82 352.53 166.71 345.99 166.71
  Q 339.39 166.71 332.76 166.78
  Q 332.29 166.79 332.28 167.26
  L 332.04 179.38
  Q 332.03 179.98 332.63 179.98
  L 334.49 179.99
  Q 334.97 179.99 334.96 179.51
  L 334.94 175.27
  Q 334.93 174.72 335.49 174.70"
/>
<path stroke="#787c80" vector-effect="non-scaling-stroke" d="
  M 145.02 177.43
  A 0.36 0.36 0.0 0 1 144.66 177.09
  L 144.54 175.38
  A 0.36 0.36 0.0 0 1 144.90 174.99
  L 154.71 175.00
  A 0.36 0.36 0.0 0 0 155.07 174.63
  L 155.04 172.50
  A 0.36 0.36 0.0 0 0 154.69 172.15
  L 144.94 172.14
  A 0.36 0.36 0.0 0 1 144.58 171.76
  L 144.68 169.85
  A 0.36 0.36 0.0 0 1 145.04 169.51
  L 160.13 169.52
  A 0.36 0.36 0.0 0 0 160.49 169.17
  L 160.56 167.37
  A 0.36 0.36 0.0 0 0 160.20 167.00
  L 142.35 166.99
  A 0.36 0.36 0.0 0 0 141.99 167.35
  L 142.00 179.65
  A 0.36 0.36 0.0 0 0 142.36 180.01
  L 160.20 180.01
  A 0.36 0.36 0.0 0 0 160.56 179.64
  L 160.48 177.74
  A 0.36 0.36 0.0 0 0 160.12 177.39
  L 145.02 177.43"
/>
<path stroke="#787c80" vector-effect="non-scaling-stroke" d="
  M 182.38 173.00
  C 184.18 168.39 181.33 166.99 177.30 166.99
  Q 171.16 166.98 164.95 167.00
  Q 164.46 167.00 164.46 167.50
  L 164.43 179.51
  Q 164.42 179.97 164.88 179.98
  Q 171.47 180.07 178.13 179.99
  C 181.97 179.95 184.12 177.70 182.40 173.93
  A 1.18 1.18 0.0 0 1 182.38 173.00"
/>
<path stroke="#787c80" vector-effect="non-scaling-stroke" d="
  M 197.03 167.31
  L 196.97 179.65
  A 0.36 0.36 0.0 0 0 197.33 180.01
  L 207.15 180.07
  A 8.14 6.28 0.3 0 0 215.32 173.83
  L 215.32 173.33
  A 8.14 6.28 0.3 0 0 207.21 167.01
  L 197.39 166.95
  A 0.36 0.36 0.0 0 0 197.03 167.31"
/>
<path stroke="#787c80" vector-effect="non-scaling-stroke" d="
  M 222.00 175.42
  A 0.43 0.43 0.0 0 1 222.43 174.99
  L 232.36 175.00
  A 0.43 0.43 0.0 0 0 232.79 174.56
  L 232.73 172.56
  A 0.43 0.43 0.0 0 0 232.30 172.14
  L 222.42 172.15
  A 0.43 0.43 0.0 0 1 221.99 171.72
  L 222.01 169.90
  A 0.43 0.43 0.0 0 1 222.44 169.47
  L 237.57 169.47
  A 0.43 0.43 0.0 0 0 238.00 169.05
  L 238.01 167.44
  A 0.43 0.43 0.0 0 0 237.58 167.00
  L 220.00 167.00
  A 0.43 0.43 0.0 0 0 219.57 167.43
  L 219.49 179.58
  A 0.43 0.43 0.0 0 0 219.92 180.01
  L 237.54 180.01
  A 0.43 0.43 0.0 0 0 237.97 179.59
  L 238.02 177.85
  A 0.43 0.43 0.0 0 0 237.59 177.41
  L 222.43 177.41
  A 0.43 0.43 0.0 0 1 222.00 176.98
  L 222.00 175.42"
/>
<path stroke="#787c80" vector-effect="non-scaling-stroke" d="
  M 251.04 175.82
  Q 247.56 171.88 245.57 168.69
  Q 244.15 166.42 241.75 167.02
  Q 241.11 167.18 241.51 167.71
  L 251.05 180.38
  Q 251.42 180.87 251.79 180.38
  L 261.35 167.59
  Q 261.57 167.29 261.22 167.16
  Q 258.92 166.32 257.84 167.85
  Q 254.97 171.96 251.79 175.81
  Q 251.42 176.26 251.04 175.82"
/>
<path stroke="#787c80" vector-effect="non-scaling-stroke" d="
  M 267.22 175.43
  A 0.43 0.43 0.0 0 1 267.65 174.99
  L 277.57 175.00
  A 0.43 0.43 0.0 0 0 278.00 174.57
  L 278.00 172.58
  A 0.43 0.43 0.0 0 0 277.57 172.15
  L 267.64 172.15
  A 0.43 0.43 0.0 0 1 267.21 171.70
  L 267.28 169.88
  A 0.43 0.43 0.0 0 1 267.71 169.47
  L 282.80 169.48
  A 0.43 0.43 0.0 0 0 283.23 169.05
  L 283.25 167.44
  A 0.43 0.43 0.0 0 0 282.82 167.01
  L 265.36 166.99
  A 0.43 0.43 0.0 0 0 264.93 167.42
  L 264.94 179.58
  A 0.43 0.43 0.0 0 0 265.37 180.01
  L 282.80 180.01
  A 0.43 0.43 0.0 0 0 283.23 179.56
  L 283.13 177.81
  A 0.43 0.43 0.0 0 0 282.70 177.40
  L 267.67 177.41
  A 0.43 0.43 0.0 0 1 267.24 176.99
  L 267.22 175.43"
/>
<path stroke="#787c80" vector-effect="non-scaling-stroke" d="
  M 290.32 177.37
  A 0.33 0.33 0.0 0 1 289.99 177.04
  L 289.99 167.27
  A 0.33 0.33 0.0 0 0 289.66 166.94
  L 287.53 166.98
  A 0.33 0.33 0.0 0 0 287.21 167.30
  L 287.16 179.68
  A 0.33 0.33 0.0 0 0 287.49 180.01
  L 305.65 180.01
  A 0.33 0.33 0.0 0 0 305.98 179.65
  L 305.77 177.64
  A 0.33 0.33 0.0 0 0 305.44 177.34
  L 290.32 177.37"
/>
<path stroke="#787c80" vector-effect="non-scaling-stroke" d="
  M 328.0616 170.8266
  A 3.88 3.88 0.0 0 0 324.1546 166.9738
  L 313.7349 167.0465
  A 3.88 3.88 0.0 0 0 309.8821 170.9535
  L 309.9184 176.1534
  A 3.88 3.88 0.0 0 0 313.8254 180.0062
  L 324.2451 179.9335
  A 3.88 3.88 0.0 0 0 328.0979 176.0265
  L 328.0616 170.8266"
/>
<path stroke="#787c80" vector-effect="non-scaling-stroke" d="
  M 357.89 177.42
  A 0.36 0.36 0.0 0 1 357.53 177.10
  L 357.33 175.39
  A 0.36 0.36 0.0 0 1 357.69 174.99
  L 367.65 175.00
  A 0.36 0.36 0.0 0 0 368.01 174.64
  L 367.99 172.50
  A 0.36 0.36 0.0 0 0 367.63 172.14
  L 357.81 172.15
  A 0.36 0.36 0.0 0 1 357.45 171.78
  L 357.50 169.83
  A 0.36 0.36 0.0 0 1 357.86 169.48
  L 372.93 169.49
  A 0.36 0.36 0.0 0 0 373.29 169.16
  L 373.46 167.39
  A 0.36 0.36 0.0 0 0 373.10 167.00
  L 355.15 167.00
  A 0.36 0.36 0.0 0 0 354.79 167.36
  L 354.78 179.65
  A 0.36 0.36 0.0 0 0 355.14 180.01
  L 373.03 180.01
  A 0.36 0.36 0.0 0 0 373.39 179.63
  L 373.27 177.73
  A 0.36 0.36 0.0 0 0 372.91 177.39
  L 357.89 177.42"
/>
<path stroke="#787c80" vector-effect="non-scaling-stroke" d="
  M 388.82 174.68
  C 390.53 174.64 392.37 175.05 393.89 174.10
  C 397.13 172.08 395.79 167.07 392.00 167.00
  Q 388.28 166.93 377.81 167.03
  Q 377.35 167.03 377.35 167.49
  L 377.34 179.42
  Q 377.34 180.00 377.92 179.99
  L 379.37 179.99
  Q 379.98 179.99 379.98 179.38
  L 379.97 175.25
  Q 379.97 174.72 380.50 174.72
  L 384.01 174.71
  Q 384.54 174.71 384.79 175.18
  Q 387.87 181.14 394.90 179.74
  Q 395.41 179.64 395.39 179.11
  L 395.31 177.75
  Q 395.28 177.18 394.71 177.26
  Q 391.33 177.78 388.45 176.17
  A 0.80 0.80 0.0 0 1 388.82 174.68"
/>
<path stroke="#6a0f80" vector-effect="non-scaling-stroke" d="
  M 253.59 16.62
  Q 253.51 15.79 252.76 15.60
  A 0.99 0.88 60.7 0 0 252.36 17.43
  Q 253.12 17.77 253.54 16.93
  A 0.58 0.55 -37.2 0 0 253.59 16.62"
/>
<path stroke="#6a0f80" vector-effect="non-scaling-stroke" d="
  M 260.5901 85.2136
  A 0.90 0.90 0.0 0 0 259.6916 84.3120
  L 245.9117 84.2880
  A 0.90 0.90 0.0 0 0 245.0101 85.1864
  L 245.0099 85.2664
  A 0.90 0.90 0.0 0 0 245.9084 86.1680
  L 259.6883 86.1920
  A 0.90 0.90 0.0 0 0 260.5899 85.2936
  L 260.5901 85.2136"
/>
<path stroke="#6a0f80" vector-effect="non-scaling-stroke" d="
  M 229.67 50.43
  A 0.32 0.32 0.0 0 1 229.05 50.45
  L 226.91 41.34
  A 2.33 2.33 0.0 0 0 222.37 41.35
  L 220.25 50.51
  A 0.34 0.34 0.0 0 1 219.59 50.49
  L 217.88 40.65
  A 0.69 0.69 0.0 0 0 217.21 40.07
  L 213.58 40.02
  Q 212.90 40.01 213.09 40.67
  L 216.99 54.07
  A 2.84 2.84 0.0 0 0 222.49 53.86
  Q 223.25 50.22 224.27 46.76
  Q 224.58 45.73 224.84 46.78
  L 226.58 53.83
  A 2.79 2.79 0.0 0 0 231.96 53.98
  L 236.01 40.74
  A 0.58 0.58 0.0 0 0 235.46 39.99
  L 232.11 40.00
  Q 231.49 40.00 231.38 40.62
  L 229.67 50.43"
/>
<path stroke="#6a0f80" vector-effect="non-scaling-stroke" d="
  M 249.75 46.52
  L 251.64 54.90
  A 0.72 0.72 0.0 0 0 252.34 55.46
  L 255.80 55.48
  A 0.73 0.72 -81.2 0 0 256.49 54.97
  L 260.89 40.58
  Q 261.07 39.99 260.45 40.00
  L 256.89 40.02
  Q 256.32 40.02 256.21 40.59
  L 254.49 50.23
  A 0.35 0.35 0.0 0 1 253.81 50.25
  L 251.78 41.39
  A 2.44 2.44 0.0 0 0 247.00 41.55
  Q 246.27 46.19 244.93 50.52
  A 0.29 0.29 0.0 0 1 244.37 50.48
  L 242.68 40.63
  Q 242.56 39.96 241.88 39.99
  L 238.45 40.15
  Q 237.80 40.18 237.98 40.81
  L 241.79 54.03
  A 2.77 2.77 0.0 0 0 247.12 53.98
  L 249.12 46.50
  A 0.33 0.32 46.5 0 1 249.75 46.52"
/>
<path stroke="#6a0f80" vector-effect="non-scaling-stroke" d="
  M 274.49 46.53
  Q 275.47 49.99 275.98 53.77
  A 2.95 2.95 0.0 0 0 281.77 54.09
  Q 283.47 47.28 285.73 40.73
  Q 285.98 40.02 285.22 40.01
  L 281.86 40.00
  Q 281.21 40.00 281.09 40.64
  L 279.26 50.24
  A 0.33 0.33 0.0 0 1 278.62 50.25
  L 276.56 41.25
  A 2.31 2.31 0.0 0 0 272.07 41.23
  L 269.82 50.66
  A 0.25 0.25 0.0 0 1 269.33 50.65
  L 267.50 40.68
  Q 267.37 40.00 266.68 40.01
  L 263.27 40.07
  Q 262.60 40.09 262.79 40.73
  L 266.59 54.05
  A 2.89 2.89 0.0 0 0 272.22 53.74
  Q 272.85 50.00 273.88 46.53
  Q 274.19 45.49 274.49 46.53"
/>
<path stroke="#6a0f80" vector-effect="non-scaling-stroke" d="
  M 292.08 52.90
  A 2.81 2.81 0.0 0 0 289.27 50.09
  A 2.81 2.81 0.0 0 0 286.46 52.90
  A 2.81 2.81 0.0 0 0 289.27 55.71
  A 2.81 2.81 0.0 0 0 292.08 52.90"
/>
<path stroke="#006b80" vector-effect="non-scaling-stroke" d="
  M 80.11 114.82
  L 80.23 148.90
  A 0.88 0.88 0.0 0 0 81.11 149.78
  L 91.94 149.74
  A 15.02 14.01 89.8 0 0 105.90 134.68
  L 105.88 128.88
  A 15.02 14.01 89.8 0 0 91.82 113.90
  L 80.99 113.94
  A 0.88 0.88 0.0 0 0 80.11 114.82"
/>
<path stroke="#801e6f" vector-effect="non-scaling-stroke" d="
  M 378.58 144.78
  C 380.62 137.80 382.66 116.70 372.04 114.84
  C 367.14 113.98 363.52 117.43 362.38 121.98
  C 360.70 128.70 359.11 147.91 368.05 150.76
  C 372.80 152.28 377.22 149.43 378.58 144.78"
/>
<path stroke="#20617e" vector-effect="non-scaling-stroke" d="
  M 124.54 135.56
  L 142.68 135.46
  A 0.35 0.35 0.0 0 0 143.02 135.11
  L 143.02 134.95
  A 9.69 9.33 89.7 0 0 133.64 125.31
  L 133.46 125.31
  A 9.69 9.33 89.7 0 0 124.18 135.05
  L 124.18 135.21
  A 0.35 0.35 0.0 0 0 124.54 135.56"
/>
<path stroke="#594579" vector-effect="non-scaling-stroke" d="
  M 248.3340 151.2499
  A 13.18 10.02 90.2 0 0 258.3999 138.1050
  A 13.18 10.02 90.2 0 0 248.4260 124.8901
  A 13.18 10.02 90.2 0 0 238.3601 138.0350
  A 13.18 10.02 90.2 0 0 248.3340 151.2499"
/>
<path stroke="#6a3876" vector-effect="non-scaling-stroke" d="
  M 309.11 143.44
  Q 309.47 141.00 309.14 138.47
  Q 309.08 138.01 308.63 138.13
  Q 303.40 139.47 299.00 139.96
  C 296.08 140.28 293.31 141.37 292.60 144.50
  C 290.41 154.15 307.64 153.28 309.11 143.44"
/>
<path stroke="#787c80" vector-effect="non-scaling-stroke" d="
  M 347.9335 169.7126
  A 0.31 0.31 0.0 0 0 347.6246 169.4015
  L 335.2846 169.3585
  A 0.31 0.31 0.0 0 0 334.9736 169.6674
  L 334.9665 171.6874
  A 0.31 0.31 0.0 0 0 335.2754 171.9985
  L 347.6154 172.0415
  A 0.31 0.31 0.0 0 0 347.9264 171.7326
  L 347.9335 169.7126"
/>
<path stroke="#787c80" vector-effect="non-scaling-stroke" d="
  M 180.0818 170.3529
  A 0.75 0.75 0.0 0 0 179.3345 169.6003
  L 167.7145 169.5597
  A 0.75 0.75 0.0 0 0 166.9619 170.3071
  L 166.9582 171.3871
  A 0.75 0.75 0.0 0 0 167.7055 172.1397
  L 179.3255 172.1803
  A 0.75 0.75 0.0 0 0 180.0781 171.4329
  L 180.0818 170.3529"
/>
<path stroke="#787c80" vector-effect="non-scaling-stroke" d="
  M 180.17 175.46
  A 0.69 0.69 0.0 0 0 179.48 174.77
  L 167.66 174.77
  A 0.69 0.69 0.0 0 0 166.97 175.46
  L 166.97 176.84
  A 0.69 0.69 0.0 0 0 167.66 177.53
  L 179.48 177.53
  A 0.69 0.69 0.0 0 0 180.17 176.84
  L 180.17 175.46"
/>
<path stroke="#787c80" vector-effect="non-scaling-stroke" d="
  M 199.50 169.97
  L 199.50 177.11
  A 0.51 0.51 0.0 0 0 200.01 177.62
  L 205.98 177.62
  A 6.94 3.93 0.0 0 0 212.92 173.69
  L 212.92 173.39
  A 6.94 3.93 0.0 0 0 205.98 169.46
  L 200.01 169.46
  A 0.51 0.51 0.0 0 0 199.50 169.97"
/>
<path stroke="#787c80" vector-effect="non-scaling-stroke" d="
  M 325.6808 171.0689
  A 1.58 1.58 0.0 0 0 324.0816 169.5084
  L 313.9424 169.6322
  A 1.58 1.58 0.0 0 0 312.3818 171.2314
  L 312.4392 175.9311
  A 1.58 1.58 0.0 0 0 314.0384 177.4916
  L 324.1776 177.3678
  A 1.58 1.58 0.0 0 0 325.7382 175.7686
  L 325.6808 171.0689"
/>
<path stroke="#787c80" vector-effect="non-scaling-stroke" d="
  M 392.9411 170.1813
  A 0.68 0.68 0.0 0 0 392.2623 169.5001
  L 380.6423 169.4799
  A 0.68 0.68 0.0 0 0 379.9611 170.1587
  L 379.9589 171.4187
  A 0.68 0.68 0.0 0 0 380.6377 172.0999
  L 392.2577 172.1201
  A 0.68 0.68 0.0 0 0 392.9389 171.4413
  L 392.9411 170.1813"
/>
</g>
<path fill="#000000" d="
  M 0.00 0.00
  L 500.00 0.00
  L 500.00 192.00
  L 0.00 192.00
  L 0.00 0.00
  Z
  M 229.29 88.75
  L 322.07 88.74
  A 2.01 2.01 0.0 0 0 324.08 86.71
  L 324.06 82.27
  Q 324.05 81.73 323.52 81.73
  L 311.75 81.75
  Q 311.24 81.75 311.24 81.25
  L 311.25 17.27
  Q 311.25 14.01 308.00 14.01
  L 219.03 14.03
  L 196.95 14.03
  A 2.72 2.71 -0.0 0 0 194.23 16.74
  L 194.21 81.27
  Q 194.21 81.75 193.73 81.75
  L 181.77 81.75
  Q 181.29 81.75 181.29 82.23
  L 181.28 86.24
  A 2.52 2.51 -0.0 0 0 183.80 88.75
  L 229.29 88.75
  Z
  M 400.29 130.60
  A 0.33 0.33 0.0 0 1 399.73 130.36
  L 399.75 109.12
  A 0.33 0.33 0.0 0 0 399.42 108.79
  L 393.87 108.80
  A 0.33 0.33 0.0 0 0 393.54 109.13
  L 393.54 154.66
  A 0.33 0.33 0.0 0 0 393.88 154.99
  L 399.39 154.91
  A 0.33 0.33 0.0 0 0 399.71 154.58
  L 399.70 138.76
  A 0.33 0.33 0.0 0 1 399.81 138.52
  L 406.88 131.99
  A 0.33 0.33 0.0 0 1 407.38 132.04
  L 423.30 154.84
  A 0.33 0.33 0.0 0 0 423.57 154.98
  L 430.80 154.93
  A 0.33 0.33 0.0 0 0 431.07 154.41
  L 411.83 127.70
  A 0.33 0.33 0.0 0 1 411.86 127.27
  L 430.37 109.15
  A 0.33 0.33 0.0 0 0 430.13 108.58
  L 422.25 108.79
  A 0.33 0.33 0.0 0 0 422.03 108.88
  L 400.29 130.60
  Z
  M 73.91 109.53
  L 74.07 154.23
  A 0.78 0.78 0.0 0 0 74.85 155.00
  L 93.25 154.94
  A 20.55 19.00 89.8 0 0 112.18 134.32
  L 112.16 129.16
  A 20.55 19.00 89.8 0 0 93.09 108.68
  L 74.69 108.74
  A 0.78 0.78 0.0 0 0 73.91 109.53
  Z
  M 194.74 118.39
  A 0.31 0.31 0.0 0 1 195.31 118.23
  L 218.36 154.75
  A 0.31 0.31 0.0 0 0 218.62 154.89
  L 225.02 154.92
  A 0.31 0.31 0.0 0 0 225.33 154.61
  L 225.44 109.11
  A 0.31 0.31 0.0 0 0 225.13 108.80
  L 219.82 108.78
  A 0.31 0.31 0.0 0 0 219.51 109.09
  L 219.54 145.44
  A 0.31 0.31 0.0 0 1 218.97 145.61
  L 196.15 108.92
  A 0.31 0.31 0.0 0 0 195.89 108.77
  L 189.06 108.83
  A 0.31 0.31 0.0 0 0 188.75 109.14
  L 188.72 154.67
  A 0.31 0.31 0.0 0 0 189.03 154.98
  L 194.46 154.97
  A 0.31 0.31 0.0 0 0 194.77 154.66
  L 194.74 118.39
  Z
  M 337.52 123.44
  L 337.55 154.34
  Q 337.55 154.89 338.09 154.89
  L 342.88 154.90
  Q 343.41 154.90 343.41 154.37
  L 343.46 110.21
  Q 343.46 109.70 342.96 109.71
  L 339.59 109.71
  Q 339.08 109.72 338.96 110.21
  Q 336.86 118.68 327.81 118.09
  A 0.76 0.76 0.0 0 0 326.99 118.84
  L 326.94 122.35
  Q 326.93 122.89 327.47 122.89
  L 336.94 122.86
  Q 337.51 122.86 337.52 123.44
  Z
  M 357.92 117.94
  C 353.28 129.55 352.57 156.44 371.32 156.01
  C 389.87 155.59 389.36 121.56 379.80 112.97
  C 373.24 107.06 361.36 109.33 357.92 117.94
  Z
  M 277.46 120.74
  L 277.46 112.43
  Q 277.46 111.90 276.93 111.90
  L 272.53 111.91
  Q 271.98 111.91 271.98 112.47
  L 271.90 120.69
  A 0.59 0.59 0.0 0 1 271.31 121.27
  L 267.74 121.25
  Q 267.22 121.24 267.22 121.76
  L 267.23 125.23
  A 0.74 0.73 89.2 0 0 267.98 125.97
  L 271.26 125.93
  A 0.62 0.62 0.0 0 1 271.89 126.54
  Q 272.02 135.52 271.99 144.50
  C 271.97 150.31 271.37 154.90 278.21 155.27
  Q 280.36 155.38 282.50 154.83
  A 0.68 0.67 -8.9 0 0 283.01 154.14
  L 282.84 150.81
  A 0.53 0.52 79.6 0 0 282.15 150.33
  C 278.82 151.40 277.46 149.78 277.45 146.58
  Q 277.41 136.56 277.49 126.48
  Q 277.50 125.94 278.03 125.95
  L 282.30 125.98
  Q 282.96 125.99 282.96 125.32
  L 282.95 121.90
  Q 282.95 121.25 282.29 121.25
  L 277.99 121.27
  Q 277.46 121.27 277.46 120.74
  Z
  M 124.73 140.00
  L 148.20 139.99
  Q 148.58 139.99 148.61 139.61
  Q 149.11 131.57 145.48 126.02
  C 139.90 117.49 125.36 118.85 120.64 127.72
  C 114.45 139.36 118.85 157.14 134.93 155.85
  C 141.81 155.30 146.50 151.57 148.17 144.93
  Q 148.31 144.34 147.71 144.36
  L 143.56 144.48
  Q 143.02 144.50 142.77 144.98
  C 137.65 155.11 123.66 151.93 124.14 140.57
  Q 124.16 140.00 124.73 140.00
  Z
  M 248.4313 156.0100
  A 17.94 15.81 89.9 0 0 264.2100 138.0424
  A 17.94 15.81 89.9 0 0 248.3687 120.1300
  A 17.94 15.81 89.9 0 0 232.5900 138.0976
  A 17.94 15.81 89.9 0 0 248.4313 156.0100
  Z
  M 309.80 151.09
  C 309.80 155.57 314.95 156.08 318.12 155.00
  Q 318.59 154.83 318.60 154.33
  L 318.65 151.42
  A 0.50 0.50 0.0 0 0 317.97 150.94
  C 315.36 151.91 314.74 150.23 314.76 147.99
  Q 314.83 139.04 314.73 130.07
  C 314.61 119.75 301.17 118.71 294.32 121.76
  Q 289.10 124.09 288.34 130.81
  Q 288.28 131.35 288.82 131.35
  L 292.92 131.39
  A 0.67 0.66 -84.1 0 0 293.57 130.86
  C 295.61 120.92 313.18 124.35 308.69 133.21
  A 2.20 2.20 0.0 0 1 306.97 134.40
  Q 301.22 135.04 295.27 136.06
  C 282.45 138.24 284.31 156.98 298.90 155.82
  Q 304.80 155.35 309.04 150.79
  A 0.44 0.44 0.0 0 1 309.80 151.09
  Z
  M 177.24 121.27
  A 0.32 0.32 0.0 0 0 176.94 121.48
  L 167.70 148.01
  A 0.32 0.32 0.0 0 1 167.10 148.00
  L 158.56 121.45
  A 0.32 0.32 0.0 0 0 158.26 121.23
  L 152.40 121.25
  A 0.32 0.32 0.0 0 0 152.10 121.68
  L 164.18 154.75
  A 0.32 0.32 0.0 0 0 164.48 154.96
  L 170.10 154.94
  A 0.32 0.32 0.0 0 0 170.40 154.73
  L 182.96 121.68
  A 0.32 0.32 0.0 0 0 182.66 121.24
  L 177.24 121.27
  Z
  M 124.06 170.63
  C 122.60 168.95 121.83 166.12 118.72 167.15
  Q 118.24 167.32 118.55 167.72
  L 122.44 172.85
  A 0.77 0.77 0.0 0 1 122.44 173.79
  L 120.72 176.00
  Q 120.32 176.51 119.92 175.99
  Q 116.69 171.77 113.46 167.56
  Q 112.51 166.33 110.49 167.07
  Q 109.97 167.26 110.30 167.70
  L 119.95 180.50
  A 0.48 0.48 0.0 0 0 120.72 180.50
  L 124.06 175.97
  A 0.51 0.51 0.0 0 1 124.88 175.98
  L 128.05 180.45
  A 0.56 0.55 -44.0 0 0 128.94 180.46
  L 138.56 167.58
  Q 138.75 167.32 138.45 167.20
  Q 136.08 166.27 134.92 167.94
  Q 132.05 172.07 128.85 175.97
  Q 128.45 176.46 128.06 175.97
  L 126.32 173.86
  A 0.73 0.72 44.7 0 1 126.31 172.96
  L 130.38 167.62
  Q 130.60 167.33 130.26 167.21
  C 127.16 166.03 126.18 168.67 124.90 170.58
  Q 124.52 171.15 124.06 170.63
  Z
  M 335.49 174.70
  Q 341.37 174.53 347.26 174.69
  C 351.73 174.82 352.53 166.71 345.99 166.71
  Q 339.39 166.71 332.76 166.78
  Q 332.29 166.79 332.28 167.26
  L 332.04 179.38
  Q 332.03 179.98 332.63 179.98
  L 334.49 179.99
  Q 334.97 179.99 334.96 179.51
  L 334.94 175.27
  Q 334.93 174.72 335.49 174.70
  Z
  M 145.02 177.43
  A 0.36 0.36 0.0 0 1 144.66 177.09
  L 144.54 175.38
  A 0.36 0.36 0.0 0 1 144.90 174.99
  L 154.71 175.00
  A 0.36 0.36 0.0 0 0 155.07 174.63
  L 155.04 172.50
  A 0.36 0.36 0.0 0 0 154.69 172.15
  L 144.94 172.14
  A 0.36 0.36 0.0 0 1 144.58 171.76
  L 144.68 169.85
  A 0.36 0.36 0.0 0 1 145.04 169.51
  L 160.13 169.52
  A 0.36 0.36 0.0 0 0 160.49 169.17
  L 160.56 167.37
  A 0.36 0.36 0.0 0 0 160.20 167.00
  L 142.35 166.99
  A 0.36 0.36 0.0 0 0 141.99 167.35
  L 142.00 179.65
  A 0.36 0.36 0.0 0 0 142.36 180.01
  L 160.20 180.01
  A 0.36 0.36 0.0 0 0 160.56 179.64
  L 160.48 177.74
  A 0.36 0.36 0.0 0 0 160.12 177.39
  L 145.02 177.43
  Z
  M 182.38 173.00
  C 184.18 168.39 181.33 166.99 177.30 166.99
  Q 171.16 166.98 164.95 167.00
  Q 164.46 167.00 164.46 167.50
  L 164.43 179.51
  Q 164.42 179.97 164.88 179.98
  Q 171.47 180.07 178.13 179.99
  C 181.97 179.95 184.12 177.70 182.40 173.93
  A 1.18 1.18 0.0 0 1 182.38 173.00
  Z
  M 197.03 167.31
  L 196.97 179.65
  A 0.36 0.36 0.0 0 0 197.33 180.01
  L 207.15 180.07
  A 8.14 6.28 0.3 0 0 215.32 173.83
  L 215.32 173.33
  A 8.14 6.28 0.3 0 0 207.21 167.01
  L 197.39 166.95
  A 0.36 0.36 0.0 0 0 197.03 167.31
  Z
  M 222.00 175.42
  A 0.43 0.43 0.0 0 1 222.43 174.99
  L 232.36 175.00
  A 0.43 0.43 0.0 0 0 232.79 174.56
  L 232.73 172.56
  A 0.43 0.43 0.0 0 0 232.30 172.14
  L 222.42 172.15
  A 0.43 0.43 0.0 0 1 221.99 171.72
  L 222.01 169.90
  A 0.43 0.43 0.0 0 1 222.44 169.47
  L 237.57 169.47
  A 0.43 0.43 0.0 0 0 238.00 169.05
  L 238.01 167.44
  A 0.43 0.43 0.0 0 0 237.58 167.00
  L 220.00 167.00
  A 0.43 0.43 0.0 0 0 219.57 167.43
  L 219.49 179.58
  A 0.43 0.43 0.0 0 0 219.92 180.01
  L 237.54 180.01
  A 0.43 0.43 0.0 0 0 237.97 179.59
  L 238.02 177.85
  A 0.43 0.43 0.0 0 0 237.59 177.41
  L 222.43 177.41
  A 0.43 0.43 0.0 0 1 222.00 176.98
  L 222.00 175.42
  Z
  M 251.04 175.82
  Q 247.56 171.88 245.57 168.69
  Q 244.15 166.42 241.75 167.02
  Q 241.11 167.18 241.51 167.71
  L 251.05 180.38
  Q 251.42 180.87 251.79 180.38
  L 261.35 167.59
  Q 261.57 167.29 261.22 167.16
  Q 258.92 166.32 257.84 167.85
  Q 254.97 171.96 251.79 175.81
  Q 251.42 176.26 251.04 175.82
  Z
  M 267.22 175.43
  A 0.43 0.43 0.0 0 1 267.65 174.99
  L 277.57 175.00
  A 0.43 0.43 0.0 0 0 278.00 174.57
  L 278.00 172.58
  A 0.43 0.43 0.0 0 0 277.57 172.15
  L 267.64 172.15
  A 0.43 0.43 0.0 0 1 267.21 171.70
  L 267.28 169.88
  A 0.43 0.43 0.0 0 1 267.71 169.47
  L 282.80 169.48
  A 0.43 0.43 0.0 0 0 283.23 169.05
  L 283.25 167.44
  A 0.43 0.43 0.0 0 0 282.82 167.01
  L 265.36 166.99
  A 0.43 0.43 0.0 0 0 264.93 167.42
  L 264.94 179.58
  A 0.43 0.43 0.0 0 0 265.37 180.01
  L 282.80 180.01
  A 0.43 0.43 0.0 0 0 283.23 179.56
  L 283.13 177.81
  A 0.43 0.43 0.0 0 0 282.70 177.40
  L 267.67 177.41
  A 0.43 0.43 0.0 0 1 267.24 176.99
  L 267.22 175.43
  Z
  M 290.32 177.37
  A 0.33 0.33 0.0 0 1 289.99 177.04
  L 289.99 167.27
  A 0.33 0.33 0.0 0 0 289.66 166.94
  L 287.53 166.98
  A 0.33 0.33 0.0 0 0 287.21 167.30
  L 287.16 179.68
  A 0.33 0.33 0.0 0 0 287.49 180.01
  L 305.65 180.01
  A 0.33 0.33 0.0 0 0 305.98 179.65
  L 305.77 177.64
  A 0.33 0.33 0.0 0 0 305.44 177.34
  L 290.32 177.37
  Z
  M 328.0616 170.8266
  A 3.88 3.88 0.0 0 0 324.1546 166.9738
  L 313.7349 167.0465
  A 3.88 3.88 0.0 0 0 309.8821 170.9535
  L 309.9184 176.1534
  A 3.88 3.88 0.0 0 0 313.8254 180.0062
  L 324.2451 179.9335
  A 3.88 3.88 0.0 0 0 328.0979 176.0265
  L 328.0616 170.8266
  Z
  M 357.89 177.42
  A 0.36 0.36 0.0 0 1 357.53 177.10
  L 357.33 175.39
  A 0.36 0.36 0.0 0 1 357.69 174.99
  L 367.65 175.00
  A 0.36 0.36 0.0 0 0 368.01 174.64
  L 367.99 172.50
  A 0.36 0.36 0.0 0 0 367.63 172.14
  L 357.81 172.15
  A 0.36 0.36 0.0 0 1 357.45 171.78
  L 357.50 169.83
  A 0.36 0.36 0.0 0 1 357.86 169.48
  L 372.93 169.49
  A 0.36 0.36 0.0 0 0 373.29 169.16
  L 373.46 167.39
  A 0.36 0.36 0.0 0 0 373.10 167.00
  L 355.15 167.00
  A 0.36 0.36 0.0 0 0 354.79 167.36
  L 354.78 179.65
  A 0.36 0.36 0.0 0 0 355.14 180.01
  L 373.03 180.01
  A 0.36 0.36 0.0 0 0 373.39 179.63
  L 373.27 177.73
  A 0.36 0.36 0.0 0 0 372.91 177.39
  L 357.89 177.42
  Z
  M 388.82 174.68
  C 390.53 174.64 392.37 175.05 393.89 174.10
  C 397.13 172.08 395.79 167.07 392.00 167.00
  Q 388.28 166.93 377.81 167.03
  Q 377.35 167.03 377.35 167.49
  L 377.34 179.42
  Q 377.34 180.00 377.92 179.99
  L 379.37 179.99
  Q 379.98 179.99 379.98 179.38
  L 379.97 175.25
  Q 379.97 174.72 380.50 174.72
  L 384.01 174.71
  Q 384.54 174.71 384.79 175.18
  Q 387.87 181.14 394.90 179.74
  Q 395.41 179.64 395.39 179.11
  L 395.31 177.75
  Q 395.28 177.18 394.71 177.26
  Q 391.33 177.78 388.45 176.17
  A 0.80 0.80 0.0 0 1 388.82 174.68
  Z"
/>
<path fill="#9b10ff" d="
  M 219.03 14.03
  Q 219.83 14.46 220.44 15.26
  A 0.61 0.60 51.9 0 1 220.34 16.10
  Q 219.62 16.69 220.05 17.38
  Q 220.23 17.68 219.88 17.70
  Q 217.19 17.84 215.91 19.06
  L 199.54 19.19
  Q 198.99 19.19 198.99 19.74
  L 198.98 76.72
  Q 198.98 77.20 199.45 77.20
  L 229.14 77.27
  Q 234.03 80.16 232.12 86.24
  Q 231.96 86.76 231.42 86.80
  L 228.58 87.01
  A 0.28 0.28 0.0 0 0 228.33 87.36
  Q 228.52 88.17 229.09 88.06
  Q 229.36 88.01 229.37 88.29
  Q 229.38 88.54 229.29 88.75
  L 183.80 88.75
  A 2.52 2.51 0.0 0 1 181.28 86.24
  L 181.29 82.23
  Q 181.29 81.75 181.77 81.75
  L 193.73 81.75
  Q 194.21 81.75 194.21 81.27
  L 194.23 16.74
  A 2.72 2.71 -0.0 0 1 196.95 14.03
  L 219.03 14.03
  Z"
/>
<path fill="#d31eff" d="
  M 219.03 14.03
  L 308.00 14.01
  Q 311.25 14.01 311.25 17.27
  L 311.24 81.25
  Q 311.24 81.75 311.75 81.75
  L 323.52 81.73
  Q 324.05 81.73 324.06 82.27
  L 324.08 86.71
  A 2.01 2.01 0.0 0 1 322.07 88.74
  L 229.29 88.75
  Q 229.38 88.54 229.37 88.29
  Q 229.36 88.01 229.09 88.06
  Q 228.52 88.17 228.33 87.36
  A 0.28 0.28 0.0 0 1 228.58 87.01
  L 231.42 86.80
  Q 231.96 86.76 232.12 86.24
  Q 234.03 80.16 229.14 77.27
  L 306.19 77.23
  Q 306.67 77.23 306.67 76.75
  L 306.68 19.53
  A 0.43 0.42 90.0 0 0 306.26 19.10
  L 215.91 19.06
  Q 217.19 17.84 219.88 17.70
  Q 220.23 17.68 220.05 17.38
  Q 219.62 16.69 220.34 16.10
  A 0.61 0.60 51.9 0 0 220.44 15.26
  Q 219.83 14.46 219.03 14.03
  Z
  M 253.59 16.62
  Q 253.51 15.79 252.76 15.60
  A 0.99 0.88 60.7 0 0 252.36 17.43
  Q 253.12 17.77 253.54 16.93
  A 0.58 0.55 -37.2 0 0 253.59 16.62
  Z
  M 260.5901 85.2136
  A 0.90 0.90 0.0 0 0 259.6916 84.3120
  L 245.9117 84.2880
  A 0.90 0.90 0.0 0 0 245.0101 85.1864
  L 245.0099 85.2664
  A 0.90 0.90 0.0 0 0 245.9084 86.1680
  L 259.6883 86.1920
  A 0.90 0.90 0.0 0 0 260.5899 85.2936
  L 260.5901 85.2136
  Z"
/>
<path fill="#000000" d="
  M 253.59 16.62
  A 0.58 0.55 -37.2 0 1 253.54 16.93
  Q 253.12 17.77 252.36 17.43
  A 0.99 0.88 60.7 0 1 252.76 15.60
  Q 253.51 15.79 253.59 16.62
  Z"
/>
<path fill="#000000" d="
  M 215.91 19.06
  L 306.26 19.10
  A 0.43 0.42 -90.0 0 1 306.68 19.53
  L 306.67 76.75
  Q 306.67 77.23 306.19 77.23
  L 229.14 77.27
  L 199.45 77.20
  Q 198.98 77.20 198.98 76.72
  L 198.99 19.74
  Q 198.99 19.19 199.54 19.19
  L 215.91 19.06
  Z
  M 229.67 50.43
  A 0.32 0.32 0.0 0 1 229.05 50.45
  L 226.91 41.34
  A 2.33 2.33 0.0 0 0 222.37 41.35
  L 220.25 50.51
  A 0.34 0.34 0.0 0 1 219.59 50.49
  L 217.88 40.65
  A 0.69 0.69 0.0 0 0 217.21 40.07
  L 213.58 40.02
  Q 212.90 40.01 213.09 40.67
  L 216.99 54.07
  A 2.84 2.84 0.0 0 0 222.49 53.86
  Q 223.25 50.22 224.27 46.76
  Q 224.58 45.73 224.84 46.78
  L 226.58 53.83
  A 2.79 2.79 0.0 0 0 231.96 53.98
  L 236.01 40.74
  A 0.58 0.58 0.0 0 0 235.46 39.99
  L 232.11 40.00
  Q 231.49 40.00 231.38 40.62
  L 229.67 50.43
  Z
  M 249.75 46.52
  L 251.64 54.90
  A 0.72 0.72 0.0 0 0 252.34 55.46
  L 255.80 55.48
  A 0.73 0.72 -81.2 0 0 256.49 54.97
  L 260.89 40.58
  Q 261.07 39.99 260.45 40.00
  L 256.89 40.02
  Q 256.32 40.02 256.21 40.59
  L 254.49 50.23
  A 0.35 0.35 0.0 0 1 253.81 50.25
  L 251.78 41.39
  A 2.44 2.44 0.0 0 0 247.00 41.55
  Q 246.27 46.19 244.93 50.52
  A 0.29 0.29 0.0 0 1 244.37 50.48
  L 242.68 40.63
  Q 242.56 39.96 241.88 39.99
  L 238.45 40.15
  Q 237.80 40.18 237.98 40.81
  L 241.79 54.03
  A 2.77 2.77 0.0 0 0 247.12 53.98
  L 249.12 46.50
  A 0.33 0.32 46.5 0 1 249.75 46.52
  Z
  M 274.49 46.53
  Q 275.47 49.99 275.98 53.77
  A 2.95 2.95 0.0 0 0 281.77 54.09
  Q 283.47 47.28 285.73 40.73
  Q 285.98 40.02 285.22 40.01
  L 281.86 40.00
  Q 281.21 40.00 281.09 40.64
  L 279.26 50.24
  A 0.33 0.33 0.0 0 1 278.62 50.25
  L 276.56 41.25
  A 2.31 2.31 0.0 0 0 272.07 41.23
  L 269.82 50.66
  A 0.25 0.25 0.0 0 1 269.33 50.65
  L 267.50 40.68
  Q 267.37 40.00 266.68 40.01
  L 263.27 40.07
  Q 262.60 40.09 262.79 40.73
  L 266.59 54.05
  A 2.89 2.89 0.0 0 0 272.22 53.74
  Q 272.85 50.00 273.88 46.53
  Q 274.19 45.49 274.49 46.53
  Z
  M 292.08 52.90
  A 2.81 2.81 0.0 0 0 289.27 50.09
  A 2.81 2.81 0.0 0 0 286.46 52.90
  A 2.81 2.81 0.0 0 0 289.27 55.71
  A 2.81 2.81 0.0 0 0 292.08 52.90
  Z"
/>
<path fill="#d31eff" d="
  M 229.67 50.43
  L 231.38 40.62
  Q 231.49 40.00 232.11 40.00
  L 235.46 39.99
  A 0.58 0.58 0.0 0 1 236.01 40.74
  L 231.96 53.98
  A 2.79 2.79 0.0 0 1 226.58 53.83
  L 224.84 46.78
  Q 224.58 45.73 224.27 46.76
  Q 223.25 50.22 222.49 53.86
  A 2.84 2.84 0.0 0 1 216.99 54.07
  L 213.09 40.67
  Q 212.90 40.01 213.58 40.02
  L 217.21 40.07
  A 0.69 0.69 0.0 0 1 217.88 40.65
  L 219.59 50.49
  A 0.34 0.34 0.0 0 0 220.25 50.51
  L 222.37 41.35
  A 2.33 2.33 0.0 0 1 226.91 41.34
  L 229.05 50.45
  A 0.32 0.32 0.0 0 0 229.67 50.43
  Z"
/>
<path fill="#d31eff" d="
  M 249.75 46.52
  A 0.33 0.32 46.5 0 0 249.12 46.50
  L 247.12 53.98
  A 2.77 2.77 0.0 0 1 241.79 54.03
  L 237.98 40.81
  Q 237.80 40.18 238.45 40.15
  L 241.88 39.99
  Q 242.56 39.96 242.68 40.63
  L 244.37 50.48
  A 0.29 0.29 0.0 0 0 244.93 50.52
  Q 246.27 46.19 247.00 41.55
  A 2.44 2.44 0.0 0 1 251.78 41.39
  L 253.81 50.25
  A 0.35 0.35 0.0 0 0 254.49 50.23
  L 256.21 40.59
  Q 256.32 40.02 256.89 40.02
  L 260.45 40.00
  Q 261.07 39.99 260.89 40.58
  L 256.49 54.97
  A 0.73 0.72 -81.2 0 1 255.80 55.48
  L 252.34 55.46
  A 0.72 0.72 0.0 0 1 251.64 54.90
  L 249.75 46.52
  Z"
/>
<path fill="#d31eff" d="
  M 273.88 46.53
  Q 272.85 50.00 272.22 53.74
  A 2.89 2.89 0.0 0 1 266.59 54.05
  L 262.79 40.73
  Q 262.60 40.09 263.27 40.07
  L 266.68 40.01
  Q 267.37 40.00 267.50 40.68
  L 269.33 50.65
  A 0.25 0.25 0.0 0 0 269.82 50.66
  L 272.07 41.23
  A 2.31 2.31 0.0 0 1 276.56 41.25
  L 278.62 50.25
  A 0.33 0.33 0.0 0 0 279.26 50.24
  L 281.09 40.64
  Q 281.21 40.00 281.86 40.00
  L 285.22 40.01
  Q 285.98 40.02 285.73 40.73
  Q 283.47 47.28 281.77 54.09
  A 2.95 2.95 0.0 0 1 275.98 53.77
  Q 275.47 49.99 274.49 46.53
  Q 274.19 45.49 273.88 46.53
  Z"
/>
<circle fill="#d31eff" cx="289.27" cy="52.90" r="2.81"/>
<rect fill="#000000" x="-7.79" y="-0.94" transform="translate(252.80,85.24) rotate(0.1)" width="15.58" height="1.88" rx="0.90"/>
<path fill="#ff3bde" d="
  M 400.29 130.60
  L 422.03 108.88
  A 0.33 0.33 0.0 0 1 422.25 108.79
  L 430.13 108.58
  A 0.33 0.33 0.0 0 1 430.37 109.15
  L 411.86 127.27
  A 0.33 0.33 0.0 0 0 411.83 127.70
  L 431.07 154.41
  A 0.33 0.33 0.0 0 1 430.80 154.93
  L 423.57 154.98
  A 0.33 0.33 0.0 0 1 423.30 154.84
  L 407.38 132.04
  A 0.33 0.33 0.0 0 0 406.88 131.99
  L 399.81 138.52
  A 0.33 0.33 0.0 0 0 399.70 138.76
  L 399.71 154.58
  A 0.33 0.33 0.0 0 1 399.39 154.91
  L 393.88 154.99
  A 0.33 0.33 0.0 0 1 393.54 154.66
  L 393.54 109.13
  A 0.33 0.33 0.0 0 1 393.87 108.80
  L 399.42 108.79
  A 0.33 0.33 0.0 0 1 399.75 109.12
  L 399.73 130.36
  A 0.33 0.33 0.0 0 0 400.29 130.60
  Z"
/>
<path fill="#00d6ff" d="
  M 73.91 109.53
  A 0.78 0.78 0.0 0 1 74.69 108.74
  L 93.09 108.68
  A 20.55 19.00 89.8 0 1 112.16 129.16
  L 112.18 134.32
  A 20.55 19.00 89.8 0 1 93.25 154.94
  L 74.85 155.00
  A 0.78 0.78 0.0 0 1 74.07 154.23
  L 73.91 109.53
  Z
  M 80.11 114.82
  L 80.23 148.90
  A 0.88 0.88 0.0 0 0 81.11 149.78
  L 91.94 149.74
  A 15.02 14.01 89.8 0 0 105.90 134.68
  L 105.88 128.88
  A 15.02 14.01 89.8 0 0 91.82 113.90
  L 80.99 113.94
  A 0.88 0.88 0.0 0 0 80.11 114.82
  Z"
/>
<path fill="#929df4" d="
  M 194.74 118.39
  L 194.77 154.66
  A 0.31 0.31 0.0 0 1 194.46 154.97
  L 189.03 154.98
  A 0.31 0.31 0.0 0 1 188.72 154.67
  L 188.75 109.14
  A 0.31 0.31 0.0 0 1 189.06 108.83
  L 195.89 108.77
  A 0.31 0.31 0.0 0 1 196.15 108.92
  L 218.97 145.61
  A 0.31 0.31 0.0 0 0 219.54 145.44
  L 219.51 109.09
  A 0.31 0.31 0.0 0 1 219.82 108.78
  L 225.13 108.80
  A 0.31 0.31 0.0 0 1 225.44 109.11
  L 225.33 154.61
  A 0.31 0.31 0.0 0 1 225.02 154.92
  L 218.62 154.89
  A 0.31 0.31 0.0 0 1 218.36 154.75
  L 195.31 118.23
  A 0.31 0.31 0.0 0 0 194.74 118.39
  Z"
/>
<path fill="#d370eb" d="
  M 336.94 122.86
  L 327.47 122.89
  Q 326.93 122.89 326.94 122.35
  L 326.99 118.84
  A 0.76 0.76 0.0 0 1 327.81 118.09
  Q 336.86 118.68 338.96 110.21
  Q 339.08 109.72 339.59 109.71
  L 342.96 109.71
  Q 343.46 109.70 343.46 110.21
  L 343.41 154.37
  Q 343.41 154.90 342.88 154.90
  L 338.09 154.89
  Q 337.55 154.89 337.55 154.34
  L 337.52 123.44
  Q 337.51 122.86 336.94 122.86
  Z"
/>
<path fill="#ff3bde" d="
  M 357.92 117.94
  C 361.36 109.33 373.24 107.06 379.80 112.97
  C 389.36 121.56 389.87 155.59 371.32 156.01
  C 352.57 156.44 353.28 129.55 357.92 117.94
  Z
  M 378.58 144.78
  C 380.62 137.80 382.66 116.70 372.04 114.84
  C 367.14 113.98 363.52 117.43 362.38 121.98
  C 360.70 128.70 359.11 147.91 368.05 150.76
  C 372.80 152.28 377.22 149.43 378.58 144.78
  Z"
/>
<path fill="#d370eb" d="
  M 277.99 121.27
  L 282.29 121.25
  Q 282.95 121.25 282.95 121.90
  L 282.96 125.32
  Q 282.96 125.99 282.30 125.98
  L 278.03 125.95
  Q 277.50 125.94 277.49 126.48
  Q 277.41 136.56 277.45 146.58
  C 277.46 149.78 278.82 151.40 282.15 150.33
  A 0.53 0.52 79.6 0 1 282.84 150.81
  L 283.01 154.14
  A 0.68 0.67 -8.9 0 1 282.50 154.83
  Q 280.36 155.38 278.21 155.27
  C 271.37 154.90 271.97 150.31 271.99 144.50
  Q 272.02 135.52 271.89 126.54
  A 0.62 0.62 0.0 0 0 271.26 125.93
  L 267.98 125.97
  A 0.74 0.73 89.2 0 1 267.23 125.23
  L 267.22 121.76
  Q 267.22 121.24 267.74 121.25
  L 271.31 121.27
  A 0.59 0.59 0.0 0 0 271.90 120.69
  L 271.98 112.47
  Q 271.98 111.91 272.53 111.91
  L 276.93 111.90
  Q 277.46 111.90 277.46 112.43
  L 277.46 120.74
  Q 277.46 121.27 277.99 121.27
  Z"
/>
<path fill="#000000" d="
  M 80.11 114.82
  A 0.88 0.88 0.0 0 1 80.99 113.94
  L 91.82 113.90
  A 15.02 14.01 89.8 0 1 105.88 128.88
  L 105.90 134.68
  A 15.02 14.01 89.8 0 1 91.94 149.74
  L 81.11 149.78
  A 0.88 0.88 0.0 0 1 80.23 148.90
  L 80.11 114.82
  Z"
/>
<path fill="#000000" d="
  M 378.58 144.78
  C 377.22 149.43 372.80 152.28 368.05 150.76
  C 359.11 147.91 360.70 128.70 362.38 121.98
  C 363.52 117.43 367.14 113.98 372.04 114.84
  C 382.66 116.70 380.62 137.80 378.58 144.78
  Z"
/>
<path fill="#3fc1fc" d="
  M 124.14 140.57
  C 123.66 151.93 137.65 155.11 142.77 144.98
  Q 143.02 144.50 143.56 144.48
  L 147.71 144.36
  Q 148.31 144.34 148.17 144.93
  C 146.50 151.57 141.81 155.30 134.93 155.85
  C 118.85 157.14 114.45 139.36 120.64 127.72
  C 125.36 118.85 139.90 117.49 145.48 126.02
  Q 149.11 131.57 148.61 139.61
  Q 148.58 139.99 148.20 139.99
  L 124.73 140.00
  Q 124.16 140.00 124.14 140.57
  Z
  M 124.54 135.56
  L 142.68 135.46
  A 0.35 0.35 0.0 0 0 143.02 135.11
  L 143.02 134.95
  A 9.69 9.33 89.7 0 0 133.64 125.31
  L 133.46 125.31
  A 9.69 9.33 89.7 0 0 124.18 135.05
  L 124.18 135.21
  A 0.35 0.35 0.0 0 0 124.54 135.56
  Z"
/>
<path fill="#b189f1" d="
  M 248.4313 156.0100
  A 17.94 15.81 89.9 0 1 232.5900 138.0976
  A 17.94 15.81 89.9 0 1 248.3687 120.1300
  A 17.94 15.81 89.9 0 1 264.2100 138.0424
  A 17.94 15.81 89.9 0 1 248.4313 156.0100
  Z
  M 248.3340 151.2499
  A 13.18 10.02 90.2 0 0 258.3999 138.1050
  A 13.18 10.02 90.2 0 0 248.4260 124.8901
  A 13.18 10.02 90.2 0 0 238.3601 138.0350
  A 13.18 10.02 90.2 0 0 248.3340 151.2499
  Z"
/>
<path fill="#d370eb" d="
  M 309.80 151.09
  A 0.44 0.44 0.0 0 0 309.04 150.79
  Q 304.80 155.35 298.90 155.82
  C 284.31 156.98 282.45 138.24 295.27 136.06
  Q 301.22 135.04 306.97 134.40
  A 2.20 2.20 0.0 0 0 308.69 133.21
  C 313.18 124.35 295.61 120.92 293.57 130.86
  A 0.67 0.66 -84.1 0 1 292.92 131.39
  L 288.82 131.35
  Q 288.28 131.35 288.34 130.81
  Q 289.10 124.09 294.32 121.76
  C 301.17 118.71 314.61 119.75 314.73 130.07
  Q 314.83 139.04 314.76 147.99
  C 314.74 150.23 315.36 151.91 317.97 150.94
  A 0.50 0.50 0.0 0 1 318.65 151.42
  L 318.60 154.33
  Q 318.59 154.83 318.12 155.00
  C 314.95 156.08 309.80 155.57 309.80 151.09
  Z
  M 309.11 143.44
  Q 309.47 141.00 309.14 138.47
  Q 309.08 138.01 308.63 138.13
  Q 303.40 139.47 299.00 139.96
  C 296.08 140.28 293.31 141.37 292.60 144.50
  C 290.41 154.15 307.64 153.28 309.11 143.44
  Z"
/>
<path fill="#6eb1f9" d="
  M 177.24 121.27
  L 182.66 121.24
  A 0.32 0.32 0.0 0 1 182.96 121.68
  L 170.40 154.73
  A 0.32 0.32 0.0 0 1 170.10 154.94
  L 164.48 154.96
  A 0.32 0.32 0.0 0 1 164.18 154.75
  L 152.10 121.68
  A 0.32 0.32 0.0 0 1 152.40 121.25
  L 158.26 121.23
  A 0.32 0.32 0.0 0 1 158.56 121.45
  L 167.10 148.00
  A 0.32 0.32 0.0 0 0 167.70 148.01
  L 176.94 121.48
  A 0.32 0.32 0.0 0 1 177.24 121.27
  Z"
/>
<ellipse fill="#000000" cx="0.00" cy="0.00" transform="translate(248.38,138.07) rotate(90.2)" rx="13.18" ry="10.02"/>
<path fill="#000000" d="
  M 124.54 135.56
  A 0.35 0.35 0.0 0 1 124.18 135.21
  L 124.18 135.05
  A 9.69 9.33 89.7 0 1 133.46 125.31
  L 133.64 125.31
  A 9.69 9.33 89.7 0 1 143.02 134.95
  L 143.02 135.11
  A 0.35 0.35 0.0 0 1 142.68 135.46
  L 124.54 135.56
  Z"
/>
<path fill="#000000" d="
  M 309.11 143.44
  C 307.64 153.28 290.41 154.15 292.60 144.50
  C 293.31 141.37 296.08 140.28 299.00 139.96
  Q 303.40 139.47 308.63 138.13
  Q 309.08 138.01 309.14 138.47
  Q 309.47 141.00 309.11 143.44
  Z"
/>
<path fill="#f0f7ff" d="
  M 124.90 170.58
  C 126.18 168.67 127.16 166.03 130.26 167.21
  Q 130.60 167.33 130.38 167.62
  L 126.31 172.96
  A 0.73 0.72 44.7 0 0 126.32 173.86
  L 128.06 175.97
  Q 128.45 176.46 128.85 175.97
  Q 132.05 172.07 134.92 167.94
  Q 136.08 166.27 138.45 167.20
  Q 138.75 167.32 138.56 167.58
  L 128.94 180.46
  A 0.56 0.55 -44.0 0 1 128.05 180.45
  L 124.88 175.98
  A 0.51 0.51 0.0 0 0 124.06 175.97
  L 120.72 180.50
  A 0.48 0.48 0.0 0 1 119.95 180.50
  L 110.30 167.70
  Q 109.97 167.26 110.49 167.07
  Q 112.51 166.33 113.46 167.56
  Q 116.69 171.77 119.92 175.99
  Q 120.32 176.51 120.72 176.00
  L 122.44 173.79
  A 0.77 0.77 0.0 0 0 122.44 172.85
  L 118.55 167.72
  Q 118.24 167.32 118.72 167.15
  C 121.83 166.12 122.60 168.95 124.06 170.63
  Q 124.52 171.15 124.90 170.58
  Z"
/>
<path fill="#f0f7ff" d="
  M 334.94 175.27
  L 334.96 179.51
  Q 334.97 179.99 334.49 179.99
  L 332.63 179.98
  Q 332.03 179.98 332.04 179.38
  L 332.28 167.26
  Q 332.29 166.79 332.76 166.78
  Q 339.39 166.71 345.99 166.71
  C 352.53 166.71 351.73 174.82 347.26 174.69
  Q 341.37 174.53 335.49 174.70
  Q 334.93 174.72 334.94 175.27
  Z
  M 347.9335 169.7126
  A 0.31 0.31 0.0 0 0 347.6246 169.4015
  L 335.2846 169.3585
  A 0.31 0.31 0.0 0 0 334.9736 169.6674
  L 334.9665 171.6874
  A 0.31 0.31 0.0 0 0 335.2754 171.9985
  L 347.6154 172.0415
  A 0.31 0.31 0.0 0 0 347.9264 171.7326
  L 347.9335 169.7126
  Z"
/>
<path fill="#f0f7ff" d="
  M 145.02 177.43
  L 160.12 177.39
  A 0.36 0.36 0.0 0 1 160.48 177.74
  L 160.56 179.64
  A 0.36 0.36 0.0 0 1 160.20 180.01
  L 142.36 180.01
  A 0.36 0.36 0.0 0 1 142.00 179.65
  L 141.99 167.35
  A 0.36 0.36 0.0 0 1 142.35 166.99
  L 160.20 167.00
  A 0.36 0.36 0.0 0 1 160.56 167.37
  L 160.49 169.17
  A 0.36 0.36 0.0 0 1 160.13 169.52
  L 145.04 169.51
  A 0.36 0.36 0.0 0 0 144.68 169.85
  L 144.58 171.76
  A 0.36 0.36 0.0 0 0 144.94 172.14
  L 154.69 172.15
  A 0.36 0.36 0.0 0 1 155.04 172.50
  L 155.07 174.63
  A 0.36 0.36 0.0 0 1 154.71 175.00
  L 144.90 174.99
  A 0.36 0.36 0.0 0 0 144.54 175.38
  L 144.66 177.09
  A 0.36 0.36 0.0 0 0 145.02 177.43
  Z"
/>
<path fill="#f0f7ff" d="
  M 182.40 173.93
  C 184.12 177.70 181.97 179.95 178.13 179.99
  Q 171.47 180.07 164.88 179.98
  Q 164.42 179.97 164.43 179.51
  L 164.46 167.50
  Q 164.46 167.00 164.95 167.00
  Q 171.16 166.98 177.30 166.99
  C 181.33 166.99 184.18 168.39 182.38 173.00
  A 1.18 1.18 0.0 0 0 182.40 173.93
  Z
  M 180.0818 170.3529
  A 0.75 0.75 0.0 0 0 179.3345 169.6003
  L 167.7145 169.5597
  A 0.75 0.75 0.0 0 0 166.9619 170.3071
  L 166.9582 171.3871
  A 0.75 0.75 0.0 0 0 167.7055 172.1397
  L 179.3255 172.1803
  A 0.75 0.75 0.0 0 0 180.0781 171.4329
  L 180.0818 170.3529
  Z
  M 180.17 175.46
  A 0.69 0.69 0.0 0 0 179.48 174.77
  L 167.66 174.77
  A 0.69 0.69 0.0 0 0 166.97 175.46
  L 166.97 176.84
  A 0.69 0.69 0.0 0 0 167.66 177.53
  L 179.48 177.53
  A 0.69 0.69 0.0 0 0 180.17 176.84
  L 180.17 175.46
  Z"
/>
<path fill="#f0f7ff" d="
  M 197.03 167.31
  A 0.36 0.36 0.0 0 1 197.39 166.95
  L 207.21 167.01
  A 8.14 6.28 0.3 0 1 215.32 173.33
  L 215.32 173.83
  A 8.14 6.28 0.3 0 1 207.15 180.07
  L 197.33 180.01
  A 0.36 0.36 0.0 0 1 196.97 179.65
  L 197.03 167.31
  Z
  M 199.50 169.97
  L 199.50 177.11
  A 0.51 0.51 0.0 0 0 200.01 177.62
  L 205.98 177.62
  A 6.94 3.93 0.0 0 0 212.92 173.69
  L 212.92 173.39
  A 6.94 3.93 0.0 0 0 205.98 169.46
  L 200.01 169.46
  A 0.51 0.51 0.0 0 0 199.50 169.97
  Z"
/>
<path fill="#f0f7ff" d="
  M 222.00 175.42
  L 222.00 176.98
  A 0.43 0.43 0.0 0 0 222.43 177.41
  L 237.59 177.41
  A 0.43 0.43 0.0 0 1 238.02 177.85
  L 237.97 179.59
  A 0.43 0.43 0.0 0 1 237.54 180.01
  L 219.92 180.01
  A 0.43 0.43 0.0 0 1 219.49 179.58
  L 219.57 167.43
  A 0.43 0.43 0.0 0 1 220.00 167.00
  L 237.58 167.00
  A 0.43 0.43 0.0 0 1 238.01 167.44
  L 238.00 169.05
  A 0.43 0.43 0.0 0 1 237.57 169.47
  L 222.44 169.47
  A 0.43 0.43 0.0 0 0 222.01 169.90
  L 221.99 171.72
  A 0.43 0.43 0.0 0 0 222.42 172.15
  L 232.30 172.14
  A 0.43 0.43 0.0 0 1 232.73 172.56
  L 232.79 174.56
  A 0.43 0.43 0.0 0 1 232.36 175.00
  L 222.43 174.99
  A 0.43 0.43 0.0 0 0 222.00 175.42
  Z"
/>
<path fill="#f0f7ff" d="
  M 251.79 175.81
  Q 254.97 171.96 257.84 167.85
  Q 258.92 166.32 261.22 167.16
  Q 261.57 167.29 261.35 167.59
  L 251.79 180.38
  Q 251.42 180.87 251.05 180.38
  L 241.51 167.71
  Q 241.11 167.18 241.75 167.02
  Q 244.15 166.42 245.57 168.69
  Q 247.56 171.88 251.04 175.82
  Q 251.42 176.26 251.79 175.81
  Z"
/>
<path fill="#f0f7ff" d="
  M 267.22 175.43
  L 267.24 176.99
  A 0.43 0.43 0.0 0 0 267.67 177.41
  L 282.70 177.40
  A 0.43 0.43 0.0 0 1 283.13 177.81
  L 283.23 179.56
  A 0.43 0.43 0.0 0 1 282.80 180.01
  L 265.37 180.01
  A 0.43 0.43 0.0 0 1 264.94 179.58
  L 264.93 167.42
  A 0.43 0.43 0.0 0 1 265.36 166.99
  L 282.82 167.01
  A 0.43 0.43 0.0 0 1 283.25 167.44
  L 283.23 169.05
  A 0.43 0.43 0.0 0 1 282.80 169.48
  L 267.71 169.47
  A 0.43 0.43 0.0 0 0 267.28 169.88
  L 267.21 171.70
  A 0.43 0.43 0.0 0 0 267.64 172.15
  L 277.57 172.15
  A 0.43 0.43 0.0 0 1 278.00 172.58
  L 278.00 174.57
  A 0.43 0.43 0.0 0 1 277.57 175.00
  L 267.65 174.99
  A 0.43 0.43 0.0 0 0 267.22 175.43
  Z"
/>
<path fill="#f0f7ff" d="
  M 290.32 177.37
  L 305.44 177.34
  A 0.33 0.33 0.0 0 1 305.77 177.64
  L 305.98 179.65
  A 0.33 0.33 0.0 0 1 305.65 180.01
  L 287.49 180.01
  A 0.33 0.33 0.0 0 1 287.16 179.68
  L 287.21 167.30
  A 0.33 0.33 0.0 0 1 287.53 166.98
  L 289.66 166.94
  A 0.33 0.33 0.0 0 1 289.99 167.27
  L 289.99 177.04
  A 0.33 0.33 0.0 0 0 290.32 177.37
  Z"
/>
<path fill="#f0f7ff" d="
  M 328.0979 176.0265
  A 3.88 3.88 0.0 0 1 324.2451 179.9335
  L 313.8254 180.0062
  A 3.88 3.88 0.0 0 1 309.9184 176.1534
  L 309.8821 170.9535
  A 3.88 3.88 0.0 0 1 313.7349 167.0465
  L 324.1546 166.9738
  A 3.88 3.88 0.0 0 1 328.0616 170.8266
  L 328.0979 176.0265
  Z
  M 325.6808 171.0689
  A 1.58 1.58 0.0 0 0 324.0816 169.5084
  L 313.9424 169.6322
  A 1.58 1.58 0.0 0 0 312.3818 171.2314
  L 312.4392 175.9311
  A 1.58 1.58 0.0 0 0 314.0384 177.4916
  L 324.1776 177.3678
  A 1.58 1.58 0.0 0 0 325.7382 175.7686
  L 325.6808 171.0689
  Z"
/>
<path fill="#f0f7ff" d="
  M 357.89 177.42
  L 372.91 177.39
  A 0.36 0.36 0.0 0 1 373.27 177.73
  L 373.39 179.63
  A 0.36 0.36 0.0 0 1 373.03 180.01
  L 355.14 180.01
  A 0.36 0.36 0.0 0 1 354.78 179.65
  L 354.79 167.36
  A 0.36 0.36 0.0 0 1 355.15 167.00
  L 373.10 167.00
  A 0.36 0.36 0.0 0 1 373.46 167.39
  L 373.29 169.16
  A 0.36 0.36 0.0 0 1 372.93 169.49
  L 357.86 169.48
  A 0.36 0.36 0.0 0 0 357.50 169.83
  L 357.45 171.78
  A 0.36 0.36 0.0 0 0 357.81 172.15
  L 367.63 172.14
  A 0.36 0.36 0.0 0 1 367.99 172.50
  L 368.01 174.64
  A 0.36 0.36 0.0 0 1 367.65 175.00
  L 357.69 174.99
  A 0.36 0.36 0.0 0 0 357.33 175.39
  L 357.53 177.10
  A 0.36 0.36 0.0 0 0 357.89 177.42
  Z"
/>
<path fill="#f0f7ff" d="
  M 388.82 174.68
  A 0.80 0.80 0.0 0 0 388.45 176.17
  Q 391.33 177.78 394.71 177.26
  Q 395.28 177.18 395.31 177.75
  L 395.39 179.11
  Q 395.41 179.64 394.90 179.74
  Q 387.87 181.14 384.79 175.18
  Q 384.54 174.71 384.01 174.71
  L 380.50 174.72
  Q 379.97 174.72 379.97 175.25
  L 379.98 179.38
  Q 379.98 179.99 379.37 179.99
  L 377.92 179.99
  Q 377.34 180.00 377.34 179.42
  L 377.35 167.49
  Q 377.35 167.03 377.81 167.03
  Q 388.28 166.93 392.00 167.00
  C 395.79 167.07 397.13 172.08 393.89 174.10
  C 392.37 175.05 390.53 174.64 388.82 174.68
  Z
  M 392.9411 170.1813
  A 0.68 0.68 0.0 0 0 392.2623 169.5001
  L 380.6423 169.4799
  A 0.68 0.68 0.0 0 0 379.9611 170.1587
  L 379.9589 171.4187
  A 0.68 0.68 0.0 0 0 380.6377 172.0999
  L 392.2577 172.1201
  A 0.68 0.68 0.0 0 0 392.9389 171.4413
  L 392.9411 170.1813
  Z"
/>
<rect fill="#000000" x="-6.48" y="-1.32" transform="translate(341.45,170.70) rotate(0.2)" width="12.96" height="2.64" rx="0.31"/>
<rect fill="#000000" x="-6.56" y="-1.29" transform="translate(173.52,170.87) rotate(0.2)" width="13.12" height="2.58" rx="0.75"/>
<path fill="#000000" d="
  M 199.50 169.97
  A 0.51 0.51 0.0 0 1 200.01 169.46
  L 205.98 169.46
  A 6.94 3.93 -0.0 0 1 212.92 173.39
  L 212.92 173.69
  A 6.94 3.93 -0.0 0 1 205.98 177.62
  L 200.01 177.62
  A 0.51 0.51 0.0 0 1 199.50 177.11
  L 199.50 169.97
  Z"
/>
<rect fill="#000000" x="-6.65" y="-3.93" transform="translate(319.06,173.50) rotate(-0.7)" width="13.30" height="7.86" rx="1.58"/>
<rect fill="#000000" x="-6.49" y="-1.31" transform="translate(386.45,170.80) rotate(0.1)" width="12.98" height="2.62" rx="0.68"/>
<rect fill="#000000" x="166.97" y="174.77" width="13.20" height="2.76" rx="0.69"/>
</svg>
